<!DOCTYPE svg PUBLIC "-//W3C//DTD SVG 1.1//EN" "http://www.w3.org/Graphics/SVG/1.1/DTD/svg11.dtd">
<!-- Uploaded to: SVG Repo, www.svgrepo.com, Transformed by: SVG Repo Mixer Tools -->
<svg fill="#8ea05d" width="800px" height="800px" viewBox="0 0 32 32" version="1.1" xmlns="http://www.w3.org/2000/svg" stroke="#8ea05d">
<g id="SVGRepo_bgCarrier" stroke-width="0"/>
<g id="SVGRepo_tracerCarrier" stroke-linecap="round" stroke-linejoin="round"/>
<g id="SVGRepo_iconCarrier"> <title>crate</title> <path d="M0 26.016q0 1.28 0.576 2.528l3.424-3.424v-18.144l-3.424-3.456q-0.576 1.184-0.576 2.496v20zM3.36 0.64l3.36 3.36h18.592l3.36-3.36q-1.344-0.64-2.656-0.64h-20q-1.344 0-2.656 0.64zM3.392 31.392q1.28 0.608 2.624 0.608h20q1.344 0 2.592-0.608l-3.36-3.392h-18.496zM8 24h16v-4h-16v4zM8 18.016h16v-4h-16v4zM8 12h16v-4h-16v4zM28 25.12l3.424 3.424q0.576-1.248 0.576-2.528v-20q0-1.312-0.544-2.496l-3.456 3.456v18.144z"/> </g>
</svg>