<?xml version="1.0" standalone="no"?>
<!DOCTYPE svg PUBLIC "-//W3C//DTD SVG 20010904//EN"
 "http://www.w3.org/TR/2001/REC-SVG-20010904/DTD/svg10.dtd">
<svg version="1.0" xmlns="http://www.w3.org/2000/svg"
 width="16.000000pt" height="16.000000pt" viewBox="0 0 16.000000 16.000000"
 preserveAspectRatio="xMidYMid meet">

<g transform="translate(0.000000,16.000000) scale(0.100000,-0.100000)"
fill="#000000" stroke="none">
<path d="M23 134 c20 -24 23 -84 5 -102 -9 -9 -8 -12 5 -12 9 0 17 6 18 13 0
6 2 28 3 47 1 19 -1 44 -5 55 -4 11 -8 14 -8 6 -1 -11 -4 -11 -18 0 -17 13
-17 13 0 -7z"/>
<path d="M110 135 c-2 -19 -3 -74 -1 -102 1 -7 9 -13 18 -13 13 0 14 3 5 12
-18 18 -15 78 6 102 14 17 14 19 0 8 -13 -10 -17 -10 -21 0 -3 8 -6 5 -7 -7z"/>
<path d="M64 75 c2 -11 9 -20 16 -20 7 0 14 9 16 20 2 15 -2 21 -16 21 -14 0
-18 -6 -16 -21z"/>
</g>
</svg>
